<svg width="40" height="41" viewBox="0 0 40 41" fill="none" xmlns="http://www.w3.org/2000/svg">
<g filter="url(#filter0_i_442_3308)">
<path d="M21.6782 30.0875C21.7083 26.9833 20.9278 24.4591 19.935 24.4492C18.9422 24.4395 18.1129 26.948 18.0829 30.052C18.0528 33.1562 18.8332 35.6805 19.826 35.6903C20.8189 35.7001 21.6481 33.1916 21.6782 30.0875Z" fill="url(#paint0_linear_442_3308)" fill-opacity="0.8"/>
<path d="M19.9297 24.9492C19.95 24.9494 20.0569 24.9638 20.2285 25.1953C20.3942 25.4189 20.5638 25.7737 20.7129 26.2559C21.0092 27.2145 21.1924 28.5682 21.1777 30.083C21.163 31.5977 20.9535 32.9469 20.6387 33.8994C20.4803 34.3786 20.3037 34.73 20.1338 34.9502C19.958 35.1779 19.8515 35.1906 19.8311 35.1904C19.8108 35.1902 19.7039 35.176 19.5322 34.9443C19.3666 34.7208 19.1979 34.366 19.0488 33.8838C18.7524 32.9251 18.5683 31.5716 18.583 30.0566C18.5977 28.5419 18.8082 27.1928 19.123 26.2402C19.2815 25.7611 19.457 25.4097 19.627 25.1895C19.8018 24.9628 19.9083 24.9492 19.9297 24.9492Z" stroke="url(#paint1_linear_442_3308)" stroke-opacity="0.8"/>
<path d="M15.9201 29.3816C17.6099 26.7867 18.307 24.2377 17.4771 23.6882C16.6471 23.1387 14.6044 24.7968 12.9146 27.3917C11.2248 29.9866 10.5278 32.5355 11.3577 33.0851C12.1877 33.6346 14.2303 31.9765 15.9201 29.3816Z" fill="url(#paint2_linear_442_3308)" fill-opacity="0.8"/>
<path d="M16.8184 24.1416C17.0873 24.0462 17.1835 24.0938 17.2012 24.1055C17.2208 24.1186 17.3031 24.1917 17.3232 24.4795C17.3428 24.7584 17.2942 25.149 17.1611 25.6357C16.8964 26.6037 16.3254 27.8423 15.501 29.1084C14.6764 30.3746 13.7761 31.3952 13.001 32.0244C12.6112 32.3408 12.2756 32.5396 12.0156 32.6318C11.7469 32.7271 11.6514 32.6797 11.6338 32.668C11.6145 32.6552 11.5319 32.5825 11.5117 32.2939C11.4922 32.015 11.5408 31.6244 11.6738 31.1377C11.9386 30.1697 12.5094 28.9302 13.334 27.6641C14.1584 26.3982 15.058 25.3782 15.833 24.749C16.2227 24.4327 16.5584 24.2339 16.8184 24.1416Z" stroke="url(#paint3_linear_442_3308)" stroke-opacity="0.8"/>
<path d="M11.447 25.6588C14.26 24.3972 16.2132 22.6329 15.8096 21.7181C15.4061 20.8034 12.7987 21.0846 9.98573 22.3463C7.1728 23.6079 5.21959 25.3722 5.62311 26.2869C6.02663 27.2017 8.63408 26.9204 11.447 25.6588Z" fill="url(#paint4_linear_442_3308)" fill-opacity="0.8"/>
<path d="M13.8545 21.7129C14.3518 21.6592 14.7408 21.6752 15.0088 21.7393C15.216 21.7888 15.2998 21.8531 15.333 21.8916L15.3525 21.9199C15.363 21.9438 15.3911 22.051 15.2539 22.3037C15.121 22.5485 14.8717 22.8509 14.499 23.1875C13.7579 23.8569 12.6141 24.5868 11.2422 25.2021C9.87014 25.8175 8.56689 26.1853 7.57812 26.292C7.08079 26.3456 6.69184 26.3297 6.42383 26.2656C6.14767 26.1995 6.09095 26.1074 6.08105 26.085C6.07066 26.0614 6.04126 25.9544 6.17871 25.7012C6.31165 25.4564 6.56097 25.154 6.93359 24.8174C7.67477 24.148 8.81853 23.418 10.1904 22.8027C11.5624 22.1874 12.8657 21.8196 13.8545 21.7129Z" stroke="url(#paint5_linear_442_3308)" stroke-opacity="0.8"/>
<path d="M15.4712 19.1533C15.6223 18.1638 13.278 16.9788 10.2353 16.5065C7.1924 16.0343 4.60326 16.4537 4.45222 17.4431C4.30118 18.4326 6.64544 19.6175 9.68827 20.0898C12.7311 20.562 15.3202 20.1427 15.4712 19.1533Z" fill="url(#paint6_linear_442_3308)" fill-opacity="0.8"/>
<path d="M6.33887 16.9199C7.32064 16.7609 8.67419 16.7707 10.1582 17.001C11.6422 17.2313 12.936 17.6326 13.8252 18.082C14.2724 18.3081 14.5915 18.5337 14.7832 18.7344C14.981 18.9415 14.9805 19.0523 14.9766 19.0781C14.9725 19.104 14.9398 19.2082 14.6914 19.3447C14.4492 19.4777 14.0778 19.5958 13.584 19.6758C12.6022 19.8348 11.2486 19.826 9.76465 19.5957C8.28067 19.3654 6.98681 18.9641 6.09766 18.5146C5.65067 18.2887 5.3323 18.0629 5.14062 17.8623C4.94264 17.655 4.94234 17.5444 4.94629 17.5186C4.95016 17.4932 4.98251 17.3882 5.23242 17.251C5.47454 17.118 5.84534 16.9999 6.33887 16.9199Z" stroke="url(#paint7_linear_442_3308)" stroke-opacity="0.8"/>
<path d="M16.5642 16.796C17.2218 16.0458 15.8847 13.7712 13.5779 11.7155C11.271 9.65974 8.86795 8.60135 8.21044 9.35151C7.55293 10.1017 8.88998 12.3763 11.1968 14.4321C13.5037 16.4878 15.9068 17.5461 16.5642 16.796Z" fill="url(#paint8_linear_442_3308)" fill-opacity="0.8"/>
<path d="M8.96582 9.61426C9.24049 9.63436 9.61584 9.7366 10.0742 9.93848C10.9858 10.3399 12.1196 11.0859 13.2451 12.0889C14.3705 13.0918 15.2443 14.1355 15.752 14.999C16.0071 15.4331 16.1551 15.7972 16.209 16.0713C16.2647 16.3552 16.2046 16.4484 16.1885 16.4668C16.1734 16.4839 16.0918 16.5539 15.8086 16.5332C15.5339 16.5131 15.1584 16.4108 14.7002 16.209C13.7887 15.8075 12.6547 15.0615 11.5293 14.0586C10.404 13.0557 9.53102 12.0119 9.02344 11.1484C8.76821 10.7142 8.6193 10.3504 8.56543 10.0762C8.50972 9.79237 8.57081 9.69904 8.58691 9.68066C8.60285 9.66288 8.68464 9.59371 8.96582 9.61426Z" stroke="url(#paint9_linear_442_3308)" stroke-opacity="0.8"/>
<path d="M18.7371 15.4188C19.6925 15.1462 19.7874 12.5038 18.9492 9.51678C18.1109 6.52979 16.6569 4.32934 15.7015 4.60193C14.7461 4.87452 14.6512 7.51692 15.4895 10.5039C16.3277 13.4909 17.7817 15.6914 18.7371 15.4188Z" fill="url(#paint10_linear_442_3308)" fill-opacity="0.8"/>
<path d="M15.8389 5.08301C15.8585 5.07744 15.964 5.0607 16.1924 5.2334C16.4133 5.40049 16.6745 5.6922 16.9521 6.1123C17.5042 6.94772 18.0587 8.19459 18.4678 9.65234C18.8768 11.1099 19.0517 12.4642 19.0156 13.4678C18.9975 13.9724 18.9268 14.3592 18.8252 14.6191C18.7197 14.8888 18.62 14.9317 18.5996 14.9375C18.5797 14.9431 18.4743 14.9597 18.2461 14.7871C18.0252 14.62 17.764 14.3284 17.4863 13.9082C16.9343 13.0728 16.3798 11.8268 15.9707 10.3691C15.5616 8.91142 15.3868 7.55639 15.4229 6.55273C15.441 6.04812 15.5116 5.66129 15.6133 5.40137C15.7188 5.13172 15.8185 5.08883 15.8389 5.08301Z" stroke="url(#paint11_linear_442_3308)" stroke-opacity="0.8"/>
<path d="M24.6473 10.5963C25.5438 7.6266 25.5006 4.98281 24.5507 4.69128C23.6009 4.39974 22.1041 6.57085 21.2076 9.5406C20.3111 12.5103 20.3543 15.1541 21.3042 15.4456C22.254 15.7372 23.7508 13.5661 24.6473 10.5963Z" fill="url(#paint12_linear_442_3308)" fill-opacity="0.8"/>
<path d="M24.4043 5.16895C24.425 5.17537 24.5231 5.22135 24.623 5.49219C24.7196 5.75411 24.7827 6.14251 24.791 6.64746C24.8074 7.65164 24.6065 9.00287 24.1689 10.4521C23.7315 11.9013 23.1522 13.1358 22.584 13.96C22.2982 14.3746 22.0318 14.6615 21.8076 14.8242C21.5768 14.9917 21.4713 14.9738 21.4512 14.9678C21.4308 14.9615 21.3316 14.9162 21.2314 14.6445C21.1349 14.3826 21.0717 13.9943 21.0635 13.4893C21.0471 12.4852 21.2491 11.1347 21.6865 9.68555C22.124 8.2363 22.7023 7.00101 23.2705 6.17676C23.5563 5.76215 23.8237 5.47615 24.0479 5.31348C24.2799 5.14508 24.3849 5.163 24.4043 5.16895Z" stroke="url(#paint13_linear_442_3308)" stroke-opacity="0.8"/>
<g opacity="0.9">
<path d="M28.8668 14.6091C31.213 12.5992 32.594 10.3514 31.9511 9.58842C31.3082 8.82546 28.8851 9.8363 26.5389 11.8461C24.1926 13.856 22.8117 16.1038 23.4546 16.8668C24.0974 17.6298 26.5205 16.619 28.8668 14.6091Z" fill="url(#paint14_linear_442_3308)" fill-opacity="0.8"/>
<path d="M31.1904 9.83594C31.4723 9.82092 31.5528 9.89209 31.5684 9.91016C31.5842 9.92892 31.6433 10.0238 31.582 10.3066C31.5228 10.5797 31.367 10.9402 31.1035 11.3691C30.5793 12.2225 29.6857 13.249 28.541 14.2295C27.3964 15.2099 26.2481 15.933 25.3291 16.3164C24.8669 16.5092 24.4898 16.6045 24.2148 16.6191C23.9317 16.6342 23.8519 16.5626 23.8369 16.5449C23.8211 16.5262 23.7631 16.4319 23.8242 16.1494C23.8834 15.8764 24.0382 15.515 24.3018 15.0859C24.826 14.2326 25.7196 13.2061 26.8643 12.2256C28.0089 11.2451 29.1571 10.5221 30.0762 10.1387C30.5383 9.9459 30.9154 9.85065 31.1904 9.83594Z" stroke="url(#paint15_linear_442_3308)" stroke-opacity="0.8"/>
</g>
<g opacity="0.8">
<path d="M30.2649 20.2883C33.3164 19.8766 35.6834 18.7385 35.5517 17.7462C35.4201 16.754 32.8396 16.2833 29.7881 16.6948C26.7367 17.1065 24.3697 18.2446 24.5013 19.2369C24.633 20.2292 27.2134 20.6999 30.2649 20.2883Z" fill="url(#paint16_linear_442_3308)" fill-opacity="0.8"/>
<path d="M29.8545 17.1904C31.3427 16.9897 32.6963 17.0071 33.6748 17.1855C34.167 17.2753 34.5358 17.4013 34.7754 17.5391C35.021 17.6804 35.052 17.7853 35.0557 17.8115C35.0591 17.8375 35.0573 17.9482 34.8555 18.1514C34.66 18.3481 34.337 18.5672 33.8857 18.7842C32.988 19.2159 31.6865 19.5922 30.1982 19.793C28.7099 19.9937 27.3565 19.9754 26.3779 19.7969C25.8858 19.7071 25.5169 19.5821 25.2773 19.4443C25.0303 19.3022 25.0004 19.1963 24.9971 19.1709C24.9937 19.1446 24.9959 19.0337 25.1973 18.8311C25.3928 18.6343 25.7165 18.4163 26.168 18.1992C27.0657 17.7676 28.3664 17.3912 29.8545 17.1904Z" stroke="url(#paint17_linear_442_3308)" stroke-opacity="0.8"/>
</g>
<path d="M34.2001 26.5709C34.6214 25.6644 32.7031 23.8617 29.9154 22.5443C27.1277 21.227 24.5262 20.894 24.1049 21.8005C23.6836 22.7071 25.6019 24.5098 28.3896 25.8272C31.1773 27.1444 33.7787 27.4775 34.2001 26.5709Z" fill="url(#paint18_linear_442_3308)" fill-opacity="0.8"/>
<path d="M24.9053 21.8379C25.1745 21.7791 25.5634 21.7705 26.0596 21.834C27.0461 21.9603 28.3424 22.3535 29.7021 22.9961C31.0619 23.6386 32.191 24.3921 32.9189 25.0762C33.2849 25.4201 33.5282 25.7272 33.6562 25.9746C33.7887 26.2304 33.7579 26.337 33.7471 26.3604C33.7368 26.3824 33.6772 26.4735 33.3994 26.5342C33.1303 26.5928 32.7418 26.6005 32.2461 26.5371C31.2596 26.4108 29.9633 26.0175 28.6035 25.375C27.244 24.7326 26.1147 23.9799 25.3867 23.2959C25.0208 22.952 24.7766 22.6449 24.6484 22.3975C24.5165 22.1426 24.5476 22.0356 24.5586 22.0117C24.5688 21.9897 24.6275 21.8985 24.9053 21.8379Z" stroke="url(#paint19_linear_442_3308)" stroke-opacity="0.8"/>
<path d="M28.3378 33.26C29.1783 32.7271 28.5312 30.1647 26.8925 27.5367C25.2538 24.9088 23.2439 23.2104 22.4034 23.7433C21.5629 24.2762 22.2099 26.8386 23.8487 29.4666C25.4874 32.0945 27.4972 33.7929 28.3378 33.26Z" fill="url(#paint20_linear_442_3308)" fill-opacity="0.8"/>
<path d="M22.6709 24.166C22.6887 24.1547 22.7857 24.1082 23.0527 24.209C23.3109 24.3064 23.6427 24.5127 24.0264 24.8369C24.789 25.4814 25.6683 26.5196 26.4678 27.8018C27.2673 29.084 27.8148 30.3335 28.0605 31.3066C28.1841 31.7959 28.2242 32.1874 28.1992 32.4658C28.1734 32.754 28.0897 32.8255 28.0703 32.8379C28.0525 32.8492 27.9555 32.8947 27.6885 32.7939C27.4303 32.6965 27.0984 32.4911 26.7148 32.167C25.9522 31.5225 25.0721 30.4845 24.2725 29.2021C23.473 27.92 22.9264 26.6703 22.6807 25.6973C22.5571 25.2079 22.517 24.8156 22.542 24.5371C22.5678 24.2503 22.651 24.1788 22.6709 24.166Z" stroke="url(#paint21_linear_442_3308)" stroke-opacity="0.8"/>
</g>
<defs>
<filter id="filter0_i_442_3308" x="0" y="-3.86523" width="40" height="44" filterUnits="userSpaceOnUse" color-interpolation-filters="sRGB">
<feFlood flood-opacity="0" result="BackgroundImageFix"/>
<feBlend mode="normal" in="SourceGraphic" in2="BackgroundImageFix" result="shape"/>
<feColorMatrix in="SourceAlpha" type="matrix" values="0 0 0 0 0 0 0 0 0 0 0 0 0 0 0 0 0 0 127 0" result="hardAlpha"/>
<feOffset dy="-4"/>
<feGaussianBlur stdDeviation="4"/>
<feComposite in2="hardAlpha" operator="arithmetic" k2="-1" k3="1"/>
<feColorMatrix type="matrix" values="0 0 0 0 1 0 0 0 0 1 0 0 0 0 1 0 0 0 0.64 0"/>
<feBlend mode="normal" in2="shape" result="effect1_innerShadow_442_3308"/>
</filter>
<linearGradient id="paint0_linear_442_3308" x1="19.8805" y1="24.4492" x2="19.8805" y2="41.4947" gradientUnits="userSpaceOnUse">
<stop offset="0.313079" stop-color="#37322F"/>
<stop offset="1" stop-color="#37322F"/>
</linearGradient>
<linearGradient id="paint1_linear_442_3308" x1="19.8805" y1="24.4492" x2="19.8805" y2="41.4947" gradientUnits="userSpaceOnUse">
<stop offset="0.313079" stop-color="#37322F"/>
<stop offset="1" stop-color="#37322F"/>
</linearGradient>
<linearGradient id="paint2_linear_442_3308" x1="14.4174" y1="23.583" x2="14.4174" y2="38.151" gradientUnits="userSpaceOnUse">
<stop offset="0.313079" stop-color="#37322F"/>
<stop offset="1" stop-color="#37322F"/>
</linearGradient>
<linearGradient id="paint3_linear_442_3308" x1="14.4174" y1="23.583" x2="14.4174" y2="38.151" gradientUnits="userSpaceOnUse">
<stop offset="0.313079" stop-color="#37322F"/>
<stop offset="1" stop-color="#37322F"/>
</linearGradient>
<linearGradient id="paint4_linear_442_3308" x1="10.7164" y1="21.1807" x2="10.7164" y2="29.7385" gradientUnits="userSpaceOnUse">
<stop offset="0.313079" stop-color="#37322F"/>
<stop offset="1" stop-color="#37322F"/>
</linearGradient>
<linearGradient id="paint5_linear_442_3308" x1="10.7164" y1="21.1807" x2="10.7164" y2="29.7385" gradientUnits="userSpaceOnUse">
<stop offset="0.313079" stop-color="#37322F"/>
<stop offset="1" stop-color="#37322F"/>
</linearGradient>
<linearGradient id="paint6_linear_442_3308" x1="9.96173" y1="16.3125" x2="9.96173" y2="22.3344" gradientUnits="userSpaceOnUse">
<stop offset="0.313079" stop-color="#37322F"/>
<stop offset="1" stop-color="#37322F"/>
</linearGradient>
<linearGradient id="paint7_linear_442_3308" x1="9.96173" y1="16.3125" x2="9.96173" y2="22.3344" gradientUnits="userSpaceOnUse">
<stop offset="0.313079" stop-color="#37322F"/>
<stop offset="1" stop-color="#37322F"/>
</linearGradient>
<linearGradient id="paint8_linear_442_3308" x1="12.3873" y1="9.11035" x2="12.3873" y2="21.1302" gradientUnits="userSpaceOnUse">
<stop offset="0.313079" stop-color="#37322F"/>
<stop offset="1" stop-color="#37322F"/>
</linearGradient>
<linearGradient id="paint9_linear_442_3308" x1="12.3873" y1="9.11035" x2="12.3873" y2="21.1302" gradientUnits="userSpaceOnUse">
<stop offset="0.313079" stop-color="#37322F"/>
<stop offset="1" stop-color="#37322F"/>
</linearGradient>
<linearGradient id="paint10_linear_442_3308" x1="17.2193" y1="4.5791" x2="17.2193" y2="21.0505" gradientUnits="userSpaceOnUse">
<stop offset="0.313079" stop-color="#37322F"/>
<stop offset="1" stop-color="#37322F"/>
</linearGradient>
<linearGradient id="paint11_linear_442_3308" x1="17.2193" y1="4.5791" x2="17.2193" y2="21.0505" gradientUnits="userSpaceOnUse">
<stop offset="0.313079" stop-color="#37322F"/>
<stop offset="1" stop-color="#37322F"/>
</linearGradient>
<linearGradient id="paint12_linear_442_3308" x1="22.9274" y1="4.66504" x2="22.9274" y2="21.052" gradientUnits="userSpaceOnUse">
<stop offset="0.313079" stop-color="#37322F"/>
<stop offset="1" stop-color="#37322F"/>
</linearGradient>
<linearGradient id="paint13_linear_442_3308" x1="22.9274" y1="4.66504" x2="22.9274" y2="21.052" gradientUnits="userSpaceOnUse">
<stop offset="0.313079" stop-color="#37322F"/>
<stop offset="1" stop-color="#37322F"/>
</linearGradient>
<linearGradient id="paint14_linear_442_3308" x1="27.7028" y1="9.33398" x2="27.7028" y2="21.1423" gradientUnits="userSpaceOnUse">
<stop offset="0.313079" stop-color="#37322F"/>
<stop offset="1" stop-color="#37322F"/>
</linearGradient>
<linearGradient id="paint15_linear_442_3308" x1="27.7028" y1="9.33398" x2="27.7028" y2="21.1423" gradientUnits="userSpaceOnUse">
<stop offset="0.313079" stop-color="#37322F"/>
<stop offset="1" stop-color="#37322F"/>
</linearGradient>
<linearGradient id="paint16_linear_442_3308" x1="30.0265" y1="16.5459" x2="30.0265" y2="22.4466" gradientUnits="userSpaceOnUse">
<stop offset="0.313079" stop-color="#37322F"/>
<stop offset="1" stop-color="#37322F"/>
</linearGradient>
<linearGradient id="paint17_linear_442_3308" x1="30.0265" y1="16.5459" x2="30.0265" y2="22.4466" gradientUnits="userSpaceOnUse">
<stop offset="0.313079" stop-color="#37322F"/>
<stop offset="1" stop-color="#37322F"/>
</linearGradient>
<linearGradient id="paint18_linear_442_3308" x1="29.1525" y1="21.29" x2="29.1525" y2="30.0718" gradientUnits="userSpaceOnUse">
<stop offset="0.313079" stop-color="#37322F"/>
<stop offset="1" stop-color="#37322F"/>
</linearGradient>
<linearGradient id="paint19_linear_442_3308" x1="29.1525" y1="21.29" x2="29.1525" y2="30.0718" gradientUnits="userSpaceOnUse">
<stop offset="0.313079" stop-color="#37322F"/>
<stop offset="1" stop-color="#37322F"/>
</linearGradient>
<linearGradient id="paint20_linear_442_3308" x1="25.3706" y1="23.6455" x2="25.3706" y2="38.3728" gradientUnits="userSpaceOnUse">
<stop offset="0.313079" stop-color="#37322F"/>
<stop offset="1" stop-color="#37322F"/>
</linearGradient>
<linearGradient id="paint21_linear_442_3308" x1="25.3706" y1="23.6455" x2="25.3706" y2="38.3728" gradientUnits="userSpaceOnUse">
<stop offset="0.313079" stop-color="#37322F"/>
<stop offset="1" stop-color="#37322F"/>
</linearGradient>
</defs>
</svg>
