<svg width="1060" height="949" viewBox="0 0 1060 949" fill="none" xmlns="http://www.w3.org/2000/svg">
<g opacity="0.25" filter="url(#filter0_f_406_12908)">
<rect x="227.91" y="572" width="604.178" height="267" rx="130" fill="url(#paint0_linear_406_12908)"/>
</g>
<mask id="mask0_406_12908" style="mask-type:alpha" maskUnits="userSpaceOnUse" x="-50" y="0" width="1160" height="719">
<rect x="-49.2363" width="1158.47" height="719" fill="url(#paint1_radial_406_12908)" fill-opacity="0.3"/>
</mask>
<g mask="url(#mask0_406_12908)">
<path d="M-125.426 173.569C-86.3156 50.865 59.807 -154.819 331.416 4.07861C603.024 162.976 1008.77 -70.9561 1177.7 -207.784" stroke="#37322F"/>
<path d="M-125.426 181.922C-86.3156 59.2185 59.807 -146.465 331.416 12.4321C603.024 171.329 1008.77 -62.6026 1177.7 -199.431" stroke="#37322F"/>
<path d="M-125.426 190.275C-86.3156 67.5711 59.807 -138.112 331.416 20.7847C603.024 179.682 1008.77 -54.2501 1177.7 -191.078" stroke="#37322F"/>
<path d="M-125.426 198.628C-86.3156 75.9246 59.807 -129.759 331.416 29.1382C603.024 188.035 1008.77 -45.8965 1177.7 -182.725" stroke="#37322F"/>
<path d="M-125.426 206.981C-86.3156 84.2771 59.807 -121.406 331.416 37.4907C603.024 196.388 1008.77 -37.544 1177.7 -174.372" stroke="#37322F"/>
<path d="M-125.426 215.334C-86.3156 92.6304 59.807 -113.053 331.416 45.844C603.024 204.741 1008.77 -29.1907 1177.7 -166.019" stroke="#37322F"/>
<path d="M-125.426 223.687C-86.3156 100.983 59.807 -104.7 331.416 54.1968C603.024 213.094 1008.77 -20.8379 1177.7 -157.666" stroke="#37322F"/>
<path d="M-125.426 232.041C-86.3156 109.337 59.807 -96.3468 331.416 62.5503C603.024 221.447 1008.77 -12.4844 1177.7 -149.312" stroke="#37322F"/>
<path d="M-125.426 240.394C-86.3156 117.69 59.807 -87.9933 331.416 70.9038C603.024 229.801 1008.77 -4.13091 1177.7 -140.959" stroke="#37322F"/>
<path d="M-125.426 248.747C-86.3156 126.043 59.807 -79.6408 331.416 79.2563C603.024 238.153 1008.77 4.22163 1177.7 -132.606" stroke="#37322F"/>
<path d="M-125.426 257.1C-86.3156 134.396 59.807 -71.2873 331.416 87.6099C603.024 246.507 1008.77 12.5751 1177.7 -124.253" stroke="#37322F"/>
<path d="M-125.426 265.453C-86.3156 142.749 59.807 -62.9345 331.416 95.9626C603.024 254.86 1008.77 20.9279 1177.7 -115.9" stroke="#37322F"/>
<path d="M-125.426 273.806C-86.3156 151.102 59.807 -54.5812 331.416 104.316C603.024 263.213 1008.77 29.2812 1177.7 -107.547" stroke="#37322F"/>
<path d="M-125.426 282.159C-86.3156 159.455 59.807 -46.2287 331.416 112.668C603.024 271.566 1008.77 37.6337 1177.7 -99.1943" stroke="#37322F"/>
<path d="M-125.426 290.512C-86.3156 167.808 59.807 -37.8751 331.416 121.022C603.024 279.919 1008.77 45.9873 1177.7 -90.8408" stroke="#37322F"/>
<path d="M-125.426 298.865C-86.3156 176.161 59.807 -29.5226 331.416 129.375C603.024 288.272 1008.77 54.3398 1177.7 -82.4883" stroke="#37322F"/>
<path d="M-125.426 307.218C-86.3156 184.514 59.807 -21.1691 331.416 137.728C603.024 296.625 1008.77 62.6933 1177.7 -74.1348" stroke="#37322F"/>
<path d="M-125.426 315.572C-86.3156 192.868 59.807 -12.8156 331.416 146.082C603.024 304.979 1008.77 71.0468 1177.7 -65.7812" stroke="#37322F"/>
<path d="M-125.426 323.924C-86.3156 201.22 59.807 -4.46304 331.416 154.434C603.024 313.331 1008.77 79.3994 1177.7 -57.4287" stroke="#37322F"/>
<path d="M-125.426 332.278C-86.3156 209.574 59.807 3.89048 331.416 162.788C603.024 321.685 1008.77 87.7529 1177.7 -49.0752" stroke="#37322F"/>
<path d="M-125.426 340.63C-86.3156 217.927 59.807 12.243 331.416 171.14C603.024 330.037 1008.77 96.1054 1177.7 -40.7227" stroke="#37322F"/>
<path d="M-125.426 348.984C-86.3156 226.28 59.807 20.5963 331.416 179.493C603.024 338.391 1008.77 104.459 1177.7 -32.3694" stroke="#37322F"/>
<path d="M-125.426 357.336C-86.3156 234.633 59.807 28.9491 331.416 187.846C603.024 346.743 1008.77 112.811 1177.7 -24.0166" stroke="#37322F"/>
<path d="M-125.426 365.69C-86.3156 242.986 59.807 37.3026 331.416 196.2C603.024 355.097 1008.77 121.165 1177.7 -15.6631" stroke="#37322F"/>
<path d="M-125.426 374.043C-86.3156 251.339 59.807 45.6551 331.416 204.552C603.024 363.449 1008.77 129.518 1177.7 -7.31055" stroke="#37322F"/>
<path d="M-125.426 382.396C-86.3156 259.692 59.807 54.0086 331.416 212.906C603.024 371.803 1008.77 137.871 1177.7 1.04297" stroke="#37322F"/>
<path d="M-125.426 390.75C-86.3156 268.046 59.807 62.3622 331.416 221.259C603.024 380.156 1008.77 146.225 1177.7 9.39648" stroke="#37322F"/>
<path d="M-125.426 399.102C-86.3156 276.398 59.807 70.7149 331.416 229.612C603.024 388.509 1008.77 154.577 1177.7 17.7493" stroke="#37322F"/>
<path d="M-125.426 407.456C-86.3156 284.752 59.807 79.0682 331.416 237.965C603.024 396.862 1008.77 162.931 1177.7 26.1025" stroke="#37322F"/>
<path d="M-125.426 415.808C-86.3156 293.104 59.807 87.4207 331.416 246.318C603.024 405.215 1008.77 171.283 1177.7 34.4551" stroke="#37322F"/>
<path d="M-125.426 424.162C-86.3156 301.458 59.807 95.7743 331.416 254.671C603.024 413.569 1008.77 179.637 1177.7 42.8086" stroke="#37322F"/>
<path d="M-125.426 432.514C-86.3156 309.81 59.807 104.127 331.416 263.024C603.024 421.921 1008.77 187.989 1177.7 51.1611" stroke="#37322F"/>
<path d="M-125.426 440.868C-86.3156 318.164 59.807 112.48 331.416 271.377C603.024 430.275 1008.77 196.343 1177.7 59.5146" stroke="#37322F"/>
<path d="M-125.426 449.221C-86.3156 326.517 59.807 120.834 331.416 279.731C603.024 438.628 1008.77 204.696 1177.7 67.8682" stroke="#37322F"/>
<path d="M-125.426 457.574C-86.3156 334.87 59.807 129.186 331.416 288.083C603.024 446.981 1008.77 213.049 1177.7 76.2207" stroke="#37322F"/>
<path d="M-125.426 465.927C-86.3156 343.223 59.807 137.54 331.416 296.437C603.024 455.334 1008.77 221.402 1177.7 84.5742" stroke="#37322F"/>
<path d="M-125.426 474.28C-86.3156 351.576 59.807 145.892 331.416 304.79C603.024 463.687 1008.77 229.755 1177.7 92.9268" stroke="#37322F"/>
<path d="M-125.426 482.633C-86.3156 359.929 59.807 154.246 331.416 313.143C603.024 472.04 1008.77 238.108 1177.7 101.28" stroke="#37322F"/>
<path d="M-125.426 490.986C-86.3156 368.282 59.807 162.598 331.416 321.496C603.024 480.393 1008.77 246.461 1177.7 109.633" stroke="#37322F"/>
<path d="M-125.426 499.339C-86.3156 376.636 59.807 170.952 331.416 329.849C603.024 488.746 1008.77 254.814 1177.7 117.986" stroke="#37322F"/>
<path d="M-125.426 507.693C-86.3156 384.989 59.807 179.306 331.416 338.203C603.024 497.1 1008.77 263.168 1177.7 126.34" stroke="#37322F"/>
<path d="M-125.426 516.045C-86.3156 393.342 59.807 187.658 331.416 346.555C603.024 505.452 1008.77 271.52 1177.7 134.692" stroke="#37322F"/>
<path d="M-125.426 524.399C-86.3156 401.695 59.807 196.012 331.416 354.909C603.024 513.806 1008.77 279.874 1177.7 143.046" stroke="#37322F"/>
<path d="M-125.426 532.752C-86.3156 410.048 59.807 204.364 331.416 363.261C603.024 522.159 1008.77 288.227 1177.7 151.399" stroke="#37322F"/>
<path d="M-125.426 541.105C-86.3156 418.401 59.807 212.718 331.416 371.615C603.024 530.512 1008.77 296.58 1177.7 159.752" stroke="#37322F"/>
<path d="M-125.426 549.458C-86.3156 426.754 59.807 221.07 331.416 379.967C603.024 538.864 1008.77 304.933 1177.7 168.104" stroke="#37322F"/>
<path d="M-125.426 557.811C-86.3156 435.107 59.807 229.424 331.416 388.321C603.024 547.218 1008.77 313.286 1177.7 176.458" stroke="#37322F"/>
<path d="M-125.426 566.164C-86.3156 443.46 59.807 237.776 331.416 396.673C603.024 555.57 1008.77 321.639 1177.7 184.811" stroke="#37322F"/>
<path d="M-125.426 574.517C-86.3156 451.813 59.807 246.13 331.416 405.027C603.024 563.924 1008.77 329.992 1177.7 193.164" stroke="#37322F"/>
<path d="M-125.426 582.871C-86.3156 460.167 59.807 254.483 331.416 413.38C603.024 572.277 1008.77 338.346 1177.7 201.518" stroke="#37322F"/>
<path d="M-125.426 591.223C-86.3156 468.519 59.807 262.836 331.416 421.733C603.024 580.63 1008.77 346.698 1177.7 209.87" stroke="#37322F"/>
<path d="M-125.426 597.569C-86.3156 474.865 59.807 269.181 331.416 428.079C603.024 586.976 1008.77 353.044 1177.7 216.216" stroke="#37322F"/>
<path d="M-125.426 605.922C-86.3156 483.219 59.807 277.535 331.416 436.432C603.024 595.329 1008.77 361.397 1177.7 224.569" stroke="#37322F"/>
<path d="M-125.426 614.275C-86.3156 491.571 59.807 285.888 331.416 444.785C603.024 603.682 1008.77 369.75 1177.7 232.922" stroke="#37322F"/>
<path d="M-125.426 622.628C-86.3156 499.925 59.807 294.241 331.416 453.138C603.024 612.035 1008.77 378.103 1177.7 241.275" stroke="#37322F"/>
<path d="M-125.426 630.981C-86.3156 508.277 59.807 302.594 331.416 461.491C603.024 620.388 1008.77 386.456 1177.7 249.628" stroke="#37322F"/>
<path d="M-125.426 639.334C-86.3156 516.63 59.807 310.947 331.416 469.844C603.024 628.741 1008.77 394.809 1177.7 257.981" stroke="#37322F"/>
<path d="M-125.426 647.687C-86.3156 524.983 59.807 319.3 331.416 478.197C603.024 637.094 1008.77 403.162 1177.7 266.334" stroke="#37322F"/>
<path d="M-125.426 656.041C-86.3156 533.337 59.807 327.653 331.416 486.55C603.024 645.447 1008.77 411.516 1177.7 274.688" stroke="#37322F"/>
<path d="M-125.426 664.394C-86.3156 541.69 59.807 336.007 331.416 494.904C603.024 653.801 1008.77 419.869 1177.7 283.041" stroke="#37322F"/>
<path d="M-125.426 672.747C-86.3156 550.043 59.807 344.359 331.416 503.256C603.024 662.153 1008.77 428.222 1177.7 291.394" stroke="#37322F"/>
<path d="M-125.426 681.1C-86.3156 558.396 59.807 352.713 331.416 511.61C603.024 670.507 1008.77 436.575 1177.7 299.747" stroke="#37322F"/>
<path d="M-125.426 689.453C-86.3156 566.749 59.807 361.065 331.416 519.962C603.024 678.86 1008.77 444.928 1177.7 308.1" stroke="#37322F"/>
<path d="M-125.426 697.806C-86.3156 575.102 59.807 369.419 331.416 528.316C603.024 687.213 1008.77 453.281 1177.7 316.453" stroke="#37322F"/>
<path d="M-125.426 706.159C-86.3156 583.455 59.807 377.771 331.416 536.668C603.024 695.566 1008.77 461.634 1177.7 324.806" stroke="#37322F"/>
<path d="M-125.426 714.512C-86.3156 591.808 59.807 386.125 331.416 545.022C603.024 703.919 1008.77 469.987 1177.7 333.159" stroke="#37322F"/>
<path d="M-125.426 722.865C-86.3156 600.161 59.807 394.477 331.416 553.375C603.024 712.272 1008.77 478.34 1177.7 341.512" stroke="#37322F"/>
<path d="M-125.426 731.218C-86.3156 608.514 59.807 402.831 331.416 561.728C603.024 720.625 1008.77 486.693 1177.7 349.865" stroke="#37322F"/>
<path d="M-125.426 739.572C-86.3156 616.868 59.807 411.184 331.416 570.082C603.024 728.979 1008.77 495.047 1177.7 358.219" stroke="#37322F"/>
<path d="M-125.426 747.924C-86.3156 625.22 59.807 419.537 331.416 578.434C603.024 737.331 1008.77 503.399 1177.7 366.571" stroke="#37322F"/>
<path d="M-125.426 756.278C-86.3156 633.574 59.807 427.89 331.416 586.788C603.024 745.685 1008.77 511.753 1177.7 374.925" stroke="#37322F"/>
<path d="M-125.426 764.63C-86.3156 641.927 59.807 436.243 331.416 595.14C603.024 754.037 1008.77 520.105 1177.7 383.277" stroke="#37322F"/>
<path d="M-125.426 772.984C-86.3156 650.28 59.807 444.597 331.416 603.494C603.024 762.391 1008.77 528.459 1177.7 391.631" stroke="#37322F"/>
<path d="M-125.426 781.336C-86.3156 658.633 59.807 452.949 331.416 611.846C603.024 770.743 1008.77 536.811 1177.7 399.983" stroke="#37322F"/>
<path d="M-125.426 789.69C-86.3156 666.986 59.807 461.303 331.416 620.2C603.024 779.097 1008.77 545.165 1177.7 408.337" stroke="#37322F"/>
<path d="M-125.426 798.043C-86.3156 675.339 59.807 469.655 331.416 628.552C603.024 787.449 1008.77 553.518 1177.7 416.689" stroke="#37322F"/>
<path d="M-125.426 806.396C-86.3156 683.692 59.807 478.009 331.416 636.906C603.024 795.803 1008.77 561.871 1177.7 425.043" stroke="#37322F"/>
<path d="M-125.426 814.75C-86.3156 692.046 59.807 486.362 331.416 645.259C603.024 804.156 1008.77 570.225 1177.7 433.396" stroke="#37322F"/>
<path d="M-125.426 823.102C-86.3156 700.398 59.807 494.715 331.416 653.612C603.024 812.509 1008.77 578.577 1177.7 441.749" stroke="#37322F"/>
<path d="M-125.426 831.456C-86.3156 708.752 59.807 503.068 331.416 661.965C603.024 820.862 1008.77 586.931 1177.7 450.103" stroke="#37322F"/>
<path d="M-125.426 839.808C-86.3156 717.104 59.807 511.421 331.416 670.318C603.024 829.215 1008.77 595.283 1177.7 458.455" stroke="#37322F"/>
<path d="M-125.426 848.162C-86.3156 725.458 59.807 519.774 331.416 678.671C603.024 837.569 1008.77 603.637 1177.7 466.809" stroke="#37322F"/>
<path d="M-125.426 856.514C-86.3156 733.81 59.807 528.127 331.416 687.024C603.024 845.921 1008.77 611.989 1177.7 475.161" stroke="#37322F"/>
<path d="M-125.426 864.868C-86.3156 742.164 59.807 536.48 331.416 695.377C603.024 854.275 1008.77 620.343 1177.7 483.515" stroke="#37322F"/>
<path d="M-125.426 873.221C-86.3156 750.517 59.807 544.834 331.416 703.731C603.024 862.628 1008.77 628.696 1177.7 491.868" stroke="#37322F"/>
<path d="M-125.426 881.574C-86.3156 758.87 59.807 553.186 331.416 712.083C603.024 870.981 1008.77 637.049 1177.7 500.221" stroke="#37322F"/>
<path d="M-125.426 889.927C-86.3156 767.223 59.807 561.54 331.416 720.437C603.024 879.334 1008.77 645.402 1177.7 508.574" stroke="#37322F"/>
<path d="M-125.426 898.28C-86.3156 775.576 59.807 569.892 331.416 728.79C603.024 887.687 1008.77 653.755 1177.7 516.927" stroke="#37322F"/>
<path d="M-125.426 906.633C-86.3156 783.929 59.807 578.246 331.416 737.143C603.024 896.04 1008.77 662.108 1177.7 525.28" stroke="#37322F"/>
<path d="M-125.426 914.986C-86.3156 792.282 59.807 586.598 331.416 745.496C603.024 904.393 1008.77 670.461 1177.7 533.633" stroke="#37322F"/>
<path d="M-125.426 923.339C-86.3156 800.636 59.807 594.952 331.416 753.849C603.024 912.746 1008.77 678.814 1177.7 541.986" stroke="#37322F"/>
<path d="M-125.426 931.693C-86.3156 808.989 59.807 603.306 331.416 762.203C603.024 921.1 1008.77 687.168 1177.7 550.34" stroke="#37322F"/>
<path d="M-125.426 940.045C-86.3156 817.342 59.807 611.658 331.416 770.555C603.024 929.452 1008.77 695.52 1177.7 558.692" stroke="#37322F"/>
<path d="M-125.426 948.399C-86.3156 825.695 59.807 620.012 331.416 778.909C603.024 937.806 1008.77 703.874 1177.7 567.046" stroke="#37322F"/>
<path d="M-125.426 956.752C-86.3156 834.048 59.807 628.364 331.416 787.261C603.024 946.158 1008.77 712.227 1177.7 575.398" stroke="#37322F"/>
<path d="M-125.426 965.105C-86.3156 842.401 59.807 636.718 331.416 795.615C603.024 954.512 1008.77 720.58 1177.7 583.752" stroke="#37322F"/>
<path d="M-125.426 973.458C-86.3156 850.754 59.807 645.07 331.416 803.967C603.024 962.864 1008.77 728.933 1177.7 592.104" stroke="#37322F"/>
<path d="M-125.426 981.811C-86.3156 859.107 59.807 653.424 331.416 812.321C603.024 971.218 1008.77 737.286 1177.7 600.458" stroke="#37322F"/>
<path d="M-125.426 990.164C-86.3156 867.46 59.807 661.776 331.416 820.673C603.024 979.57 1008.77 745.639 1177.7 608.811" stroke="#37322F"/>
<path d="M-125.426 998.517C-86.3156 875.813 59.807 670.13 331.416 829.027C603.024 987.924 1008.77 753.992 1177.7 617.164" stroke="#37322F"/>
<path d="M-125.426 1006.87C-86.3156 884.167 59.807 678.483 331.416 837.38C603.024 996.277 1008.77 762.346 1177.7 625.518" stroke="#37322F"/>
<path d="M-125.426 1015.22C-86.3156 892.519 59.807 686.836 331.416 845.733C603.024 1004.63 1008.77 770.698 1177.7 633.87" stroke="#37322F"/>
</g>
<defs>
<filter id="filter0_f_406_12908" x="117.91" y="462" width="824.178" height="487" filterUnits="userSpaceOnUse" color-interpolation-filters="sRGB">
<feFlood flood-opacity="0" result="BackgroundImageFix"/>
<feBlend mode="normal" in="SourceGraphic" in2="BackgroundImageFix" result="shape"/>
<feGaussianBlur stdDeviation="55" result="effect1_foregroundBlur_406_12908"/>
</filter>
<linearGradient id="paint0_linear_406_12908" x1="197.366" y1="655.859" x2="872.057" y2="737.244" gradientUnits="userSpaceOnUse">
<stop stop-color="#FF452C"/>
<stop offset="0.385" stop-color="#FF722C"/>
<stop offset="0.715" stop-color="#FF962C"/>
<stop offset="1" stop-color="#FFB92C" stop-opacity="0.97"/>
</linearGradient>
<radialGradient id="paint1_radial_406_12908" cx="0" cy="0" r="1" gradientUnits="userSpaceOnUse" gradientTransform="translate(545.52 548.193) rotate(-16.3062) scale(354.564 254.11)">
<stop stop-color="#737373" stop-opacity="0.29"/>
<stop offset="0.24" stop-color="#737373" stop-opacity="0.32"/>
<stop offset="0.585" stop-color="#AFAFAF" stop-opacity="0.15"/>
<stop offset="1" stop-color="#D9D9D9" stop-opacity="0"/>
</radialGradient>
</defs>
</svg>
